<?xml version="1.0" standalone="no"?>
<!DOCTYPE svg PUBLIC "-//W3C//DTD SVG 20010904//EN"
 "http://www.w3.org/TR/2001/REC-SVG-20010904/DTD/svg10.dtd">
<svg version="1.0" xmlns="http://www.w3.org/2000/svg"
 width="900.000000pt" height="900.000000pt" viewBox="0 0 900.000000 900.000000"
 preserveAspectRatio="xMidYMid meet">
<metadata>
Created by potrace 1.14, written by Peter Selinger 2001-2017
</metadata>
<g transform="translate(0.000000,900.000000) scale(0.100000,-0.100000)"
fill="#000000" stroke="none">
<path d="M4185 8949 c-647 -51 -1234 -226 -1782 -530 -177 -99 -442 -277 -603
-405 -156 -125 -496 -460 -626 -617 -322 -391 -583 -858 -749 -1337 -104 -302
-184 -669 -217 -1000 -16 -161 -16 -649 0 -810 75 -742 325 -1429 739 -2035
306 -446 728 -860 1183 -1157 631 -413 1298 -638 2069 -698 637 -49 1414 80
1975 329 27 11 55 21 63 21 14 0 70 -31 668 -375 452 -261 495 -284 495 -276
0 5 -334 1048 -355 1108 -2 7 37 45 88 84 198 156 429 374 601 569 522 592
874 1334 1005 2122 45 266 56 406 56 713 0 307 -11 447 -56 713 -131 788 -480
1525 -1004 2122 -138 156 -392 401 -545 524 -388 310 -866 571 -1333 727 -516
172 -1146 250 -1672 208z m-1975 -4185 l0 -1046 238 4 c280 4 299 9 342 94
l25 49 3 973 3 972 444 0 445 0 0 -857 c0 -880 -5 -1048 -40 -1256 -62 -371
-222 -571 -535 -670 -231 -72 -649 -94 -992 -52 -510 64 -735 281 -803 775
-24 175 -30 421 -30 1218 l0 842 450 0 450 0 0 -1046z m2615 974 c8 -40 94
-437 189 -883 158 -738 175 -810 193 -813 14 -2 22 4 26 20 9 34 377 1739 377
1744 0 2 212 4 470 4 370 0 470 -3 469 -12 0 -7 -154 -634 -343 -1393 l-343
-1380 -651 -3 -651 -2 -12 42 c-19 74 -679 2736 -679 2742 0 3 211 6 469 6
l470 0 16 -72z m3255 -848 l0 -910 -640 0 -640 0 0 903 c0 497 3 907 7 910 3
4 291 7 640 7 l633 0 0 -910z m-460 -1147 c204 -47 399 -203 495 -394 59 -115
79 -206 79 -344 0 -220 -65 -377 -219 -530 -153 -153 -289 -214 -497 -223
-198 -8 -336 31 -483 136 -136 98 -235 236 -287 402 -19 64 -23 96 -23 215 0
119 4 151 23 215 124 396 509 617 912 523z"/>
</g>
</svg>
